<?xml version="1.0" encoding="utf-8"?>
<!-- Generator: Adobe Illustrator 25.0.0, SVG Export Plug-In . SVG Version: 6.00 Build 0)  -->
<svg version="1.1"
	 id="svg4182" xmlns:cc="http://creativecommons.org/ns#" xmlns:dc="http://purl.org/dc/elements/1.1/" xmlns:rdf="http://www.w3.org/1999/02/22-rdf-syntax-ns#" xmlns:svg="http://www.w3.org/2000/svg"
	 xmlns="http://www.w3.org/2000/svg" xmlns:xlink="http://www.w3.org/1999/xlink" x="0px" y="0px" viewBox="0 0 1614.6 678"
	 style="enable-background:new 0 0 1614.6 678;" xml:space="preserve">
<style type="text/css">
	.st0{fill:#8A0025;}
</style>
<g id="g4190" transform="matrix(1.25,0,0,-1.25,-82.376111,442.52861)">
	<path id="path4242" class="st0" d="M927,226.6v-71.7h7.6c3.1,36.3,24.2,58.7,45.5,58.7l35.9-0.1V-24.1
		c1.8-20.1-16.2-27.6-38.1-27.4l0.1-7.6h142.1l0,7.6c-22.5,2.5-41.1,2-40.8,23.5l0.1,241.5h33.3c21.4,0,47.8-18.4,47.8-58.6h8.3
		v71.7H927L927,226.6z M821.3,184.2c-0.1,10.9,8.3,23.6,23.2,23.6c25.6,0,30.4-27,24.1-40.3c-10.8-22.5-26.2-28-26.7-27.1
		C833.2,154.9,821.5,170.8,821.3,184.2L821.3,184.2z M781.5,18.4c-19.7,37.3-5.1,63.9,14,80.1c0,0,37.6-76.1,77-115.5
		C857.2-30.7,810.8-37.2,781.5,18.4z M582,81.8h15.8c41.1,3.5,56-26.3,58.2-57.3c2.6-37.4-12.3-69.6-50.1-69.6
		c-16.9,0-23.9,6.1-23.9,25.2L582,81.8L582,81.8z M720.3-9.2c11.6-23.8,40.8-59.2,89.3-59.9c26.7-0.4,51.5,6.7,80.9,34.6
		c10.5-9.2,25.4-24.5,48.1-25.8c6.4-0.4,26,3.3,42,23.6c13.5,17.1,16.3,30.2,16.6,30.6l-7,5.2c-4.5-9.3-12-16.2-21.4-16.2
		c-17.7,0-18.7,6.9-39.4,27.6c20.6,30.2,19.4,45.7,30.6,61.7c11.4,16.2,21,25.4,40.3,26v8.1h-71.1v-7.2
		c14.2,1.1,16.5-10.1,14.6-19.5c-3.7-19-23.6-57.9-26.2-55.1C887.4,56.4,850.2,126,850.2,126c27.1,14.9,38.1,46,38.1,53.8
		c0,27-14.2,49.6-53.8,54.7c-24.1,3.1-69.6-17.1-70.5-59.1c-0.4-19,11.4-38.1,23.6-61.7c-32-12.6-57.2-37.5-67.8-69.7
		c-12.5,29.6-47,41.5-69.6,47.5h0.9c16.9,5.5,68.2,15.8,66,63.4c-2.9,62.6-83,73.4-111.5,71.4H481.3v-8.1
		c18.5-1.3,36.6,3.6,36.6-27.2L518-23c0-25.8-14-26.1-36.5-28.7l-0.1-7.4H611C681-59.8,710.5-39.8,720.3-9.2L720.3-9.2z M254.7-59.1
		h129.6c90.1,3.1,115.5,32.9,115.5,79.2c0,48.3-42.3,63.1-70.2,70.6c15.5,3.1,61.7,21.4,61,65.1c-0.9,62.7-82.8,72.5-111.4,70.6
		H254.8v-8.1c18.5-1.3,36.7,3.6,36.7-27.2l-0.1-213.2c0-25.8-14.1-27-36.6-29.5L254.7-59.1L254.7-59.1z M355.3,82.2h15.8
		c36.4,0.9,57.5-19.7,59.9-56.9c2.4-37.7-12.9-69.1-51.8-69.6c-16.9-0.2-23.9,6.1-23.9,25.2V82.2z M373.8,211.2
		c40-2.7,50.5-37.2,50.6-50c0.1-38.3-11.9-67.6-68.8-65.9v115.8C356.1,211.2,369.4,211.5,373.8,211.2L373.8,211.2z M600.5,211
		c40-2.7,50.6-37.2,50.6-50c0.1-38.3-12-67.6-68.8-65.9V211C582.8,211,596.1,211.3,600.5,211"/>
</g>
</svg>
