<?xml version="1.0" encoding="utf-8"?>
<!-- Generator: Adobe Illustrator 25.0.0, SVG Export Plug-In . SVG Version: 6.00 Build 0)  -->
<svg version="1.1" id="Layer_1" xmlns="http://www.w3.org/2000/svg" xmlns:xlink="http://www.w3.org/1999/xlink" x="0px" y="0px"
	 viewBox="0 0 89.8 45.3" style="enable-background:new 0 0 89.8 45.3;" xml:space="preserve">
<style type="text/css">
	.st0{fill:#00447C;}
	.st1{fill:url(#SVGID_1_);}
	.st2{fill:url(#SVGID_2_);}
	.st3{fill:url(#SVGID_3_);}
	.st4{fill:url(#SVGID_4_);}
	.st5{fill:url(#SVGID_5_);}
	.st6{fill:url(#SVGID_6_);}
	.st7{fill:url(#SVGID_7_);}
	.st8{fill:url(#SVGID_8_);}
	.st9{fill:url(#SVGID_9_);}
	.st10{fill:url(#SVGID_10_);}
	.st11{fill:url(#SVGID_11_);}
	.st12{fill:url(#SVGID_12_);}
	.st13{fill:url(#SVGID_13_);}
	.st14{fill:url(#SVGID_14_);}
	.st15{fill:url(#SVGID_15_);}
	.st16{fill:url(#SVGID_16_);}
</style>
<g>
	<path class="st0" d="M61.2,32.4c0,1.1-0.1,3-2.8,3c-0.6,0-1.8,0-2.5-0.7c-0.5-0.5-0.7-1.2-0.7-2.3v-4c0-0.4-0.2-0.5-0.8-0.5v-0.5
		h3.5v0.5c-0.6,0-0.8,0.1-0.8,0.5v4.3c0,1,0.1,2,1.5,2.1c1.6,0.1,1.8-1.3,1.8-2.2v-4.1c0-0.4-0.1-0.5-0.6-0.5h-0.2v-0.5H62v0.5h-0.2
		c-0.6,0-0.6,0.1-0.6,0.5L61.2,32.4L61.2,32.4z"/>
	<path class="st0" d="M73.5,35.2h-3.9v-0.5h0.3c0.6,0,0.7-0.2,0.7-0.6v-6h-0.8c-0.4,0-0.6,0.1-0.7,0.3C69,28.6,69,29.1,69,29.5h-0.7
		v-2.1h6.5v2.1h-0.7c0-0.4,0-0.9-0.2-1.1c-0.1-0.2-0.3-0.3-0.7-0.3h-0.8v6c0,0.4,0.1,0.6,0.7,0.6h0.3L73.5,35.2L73.5,35.2z"/>
	<g>
		<path class="st0" d="M68.2,33c-0.1,1.3-1.1,2.4-3.1,2.4c-1.1,0-2.3-0.4-2.8-0.7v-1.9H63c0,0.2,0,0.4,0.1,0.7
			c0,0.2,0.1,0.4,0.2,0.6c0.3,0.3,0.8,0.7,1.8,0.7c1.2,0,1.8-0.7,1.8-1.3c0-0.9-0.5-1-2.2-1.4c-1.7-0.4-2.4-1-2.4-2.4
			c0-1.3,1-2.5,3-2.5c1.2,0,1.9,0.2,2.4,0.5v1.8h-0.7c0-0.2,0-0.4,0-0.6c0-0.2-0.1-0.4-0.3-0.6c-0.5-0.4-1.2-0.5-1.7-0.4
			c-0.6,0-1.5,0.4-1.5,1.1c0,0.7,0.3,0.9,1.7,1.2c1.3,0.3,1.9,0.4,2.3,0.9C68.1,31.5,68.3,32.2,68.2,33"/>
		<path class="st0" d="M23.7,32.5c-0.2,1.5-1.4,2.9-4,2.9c-1.5,0-3-0.5-3.6-0.9v-2.6h0.8c0,0.3,0,0.5,0.1,0.8c0,0.3,0.1,0.5,0.3,0.8
			c0.5,0.6,1.2,1,2.4,1c1.8,0,2.4-1,2.4-1.9c0-1.1-0.8-1.4-2.8-1.9c-1.9-0.5-3.2-1.2-3.2-3.1c0-1.8,1.3-3.2,3.9-3.2
			c1.6,0,2.4,0.3,3.1,0.7v2.3h-0.8c0-0.2,0-0.6-0.1-0.8c-0.1-0.3-0.2-0.6-0.4-0.7c-0.7-0.5-1.3-0.6-2.1-0.5c-1.1,0-2,0.6-2,1.5
			c0,0.9,0.3,1.4,2.3,1.8c1.6,0.4,2.5,0.7,3,1.2C23.7,30.5,23.8,31.4,23.7,32.5"/>
	</g>
	<path class="st0" d="M31.9,27.9c0.6,0,0.6,0.1,0.6,0.5v5.8c0,0.4-0.1,0.5-0.6,0.5h-0.2v0.5h2.4v-0.5h-0.2c-0.6,0-0.6-0.1-0.6-0.5
		v-4.9l3.3,5.9h1.8v-6.8c0-0.4,0.1-0.5,0.6-0.5h0.6V27c0-0.7,0.1-1.6,1.2-1.6H42v8.3c0,0.7-0.2,0.9-1,0.9h-0.3v0.5h4.7v-0.5h-0.3
		c-0.8,0-1-0.2-1-0.9v-8.3h1.2c1.1,0,1.1,0.9,1.1,1.6v0.9h0.8c0.6,0,0.6,0.1,0.6,0.5v5.8c0,0.4-0.2,0.5-0.8,0.5v0.5h3.6v-0.5
		c-0.6,0-0.8-0.1-0.8-0.5V28h1c0.7,0,1.3,0.3,1.3,1.4c0,0.7-0.3,1.5-1.3,1.5h-0.6c0,0,1.4,2.9,1.7,3.4c0.3,0.7,0.8,0.8,1.6,0.8h1.4
		v-0.5c-0.2,0-0.6,0-0.8-0.4l-1.7-2.9c0.9-0.2,1.6-0.9,1.6-2c0-1.9-1.9-2-3.2-2h-3.6v-2.8h-8.4v2.8h-2v0.5H37c0.6,0,0.6,0.2,0.6,0.5
		v4.8l-3.3-5.9h-5.1v0.5h0.2c0.6,0,0.6,0.1,0.6,0.5v4.1c0,0.9-0.1,2.3-1.8,2.2c-1.5,0-1.5-1.1-1.5-2.1v-4.3c0-0.4,0.2-0.5,0.8-0.5
		v-0.5h-3.5v0.5c0.6,0,0.8,0.1,0.8,0.5v4c0,1.1,0.2,1.8,0.7,2.3c0.7,0.7,1.9,0.7,2.5,0.7c2.6,0,2.8-1.9,2.8-3.5v-4c0,0.1,0,0,0.6,0
		L31.9,27.9L31.9,27.9z"/>
	<g>
		
			<linearGradient id="SVGID_1_" gradientUnits="userSpaceOnUse" x1="22.8303" y1="28.2595" x2="37.8152" y2="46.1179" gradientTransform="matrix(1 0 0 -1 0 47.3226)">
			<stop  offset="0.3427" style="stop-color:#FDB913"/>
			<stop  offset="0.3656" style="stop-color:#FBB415"/>
			<stop  offset="0.5519" style="stop-color:#EF941B"/>
			<stop  offset="0.7247" style="stop-color:#E8801D"/>
			<stop  offset="0.8776" style="stop-color:#E4741E"/>
			<stop  offset="0.9944" style="stop-color:#E36F1E"/>
		</linearGradient>
		<path class="st1" d="M23.4,14.4l-0.2,0.5c-0.1,0.4-0.2,1.1-0.1,1.5l0.9,4.5c0.1,0.4,0.2,0.5,0.3,0.5c0.1,0,0.1-0.3,0-1l-0.7-5.9
			C23.7,14.1,23.5,14.1,23.4,14.4"/>
		
			<linearGradient id="SVGID_2_" gradientUnits="userSpaceOnUse" x1="23.3313" y1="27.7898" x2="38.261" y2="45.5823" gradientTransform="matrix(1 0 0 -1 0 47.3226)">
			<stop  offset="0.3427" style="stop-color:#FDB913"/>
			<stop  offset="0.3656" style="stop-color:#FBB415"/>
			<stop  offset="0.5519" style="stop-color:#EF941B"/>
			<stop  offset="0.7247" style="stop-color:#E8801D"/>
			<stop  offset="0.8776" style="stop-color:#E4741E"/>
			<stop  offset="0.9944" style="stop-color:#E36F1E"/>
		</linearGradient>
		<path class="st2" d="M25.2,19.1c0,0.4,0.1,0.8-0.1,0.9c-0.1,0-0.2-0.1-0.3-0.6l-0.3-2.6c0-0.4,0-1.2,0.2-1.5
			c0.1-0.3,0.3-0.2,0.3,0.2L25.2,19.1z"/>
		
			<linearGradient id="SVGID_3_" gradientUnits="userSpaceOnUse" x1="22.3707" y1="28.5622" x2="37.2459" y2="46.2897" gradientTransform="matrix(1 0 0 -1 0 47.3226)">
			<stop  offset="0.3427" style="stop-color:#FDB913"/>
			<stop  offset="0.3656" style="stop-color:#FBB415"/>
			<stop  offset="0.5519" style="stop-color:#EF941B"/>
			<stop  offset="0.7247" style="stop-color:#E8801D"/>
			<stop  offset="0.8776" style="stop-color:#E4741E"/>
			<stop  offset="0.9944" style="stop-color:#E36F1E"/>
		</linearGradient>
		<path class="st3" d="M26.4,10.3L26,17.9c0,0.3,0,0.8-0.2,0.8c-0.1,0-0.2-0.2-0.2-0.6l-0.1-6.3c0-0.3,0.1-0.8,0.3-1.1l0.2-0.4
			C26.2,9.9,26.4,9.9,26.4,10.3"/>
		
			<linearGradient id="SVGID_4_" gradientUnits="userSpaceOnUse" x1="23.2783" y1="27.7668" x2="38.1171" y2="45.451" gradientTransform="matrix(1 0 0 -1 0 47.3226)">
			<stop  offset="0.3427" style="stop-color:#FDB913"/>
			<stop  offset="0.3656" style="stop-color:#FBB415"/>
			<stop  offset="0.5519" style="stop-color:#EF941B"/>
			<stop  offset="0.7247" style="stop-color:#E8801D"/>
			<stop  offset="0.8776" style="stop-color:#E4741E"/>
			<stop  offset="0.9944" style="stop-color:#E36F1E"/>
		</linearGradient>
		<path class="st4" d="M27.5,11.8L27,17.7c-0.1,0.4-0.1,0.8-0.2,0.8c-0.1,0-0.2-0.3-0.1-0.6l0.2-5c0-0.4,0.3-0.9,0.4-1.2
			C27.5,11.4,27.6,11.5,27.5,11.8"/>
		
			<linearGradient id="SVGID_5_" gradientUnits="userSpaceOnUse" x1="22.6851" y1="28.2386" x2="37.4912" y2="45.884" gradientTransform="matrix(1 0 0 -1 0 47.3226)">
			<stop  offset="0.3427" style="stop-color:#FDB913"/>
			<stop  offset="0.3656" style="stop-color:#FBB415"/>
			<stop  offset="0.5519" style="stop-color:#EF941B"/>
			<stop  offset="0.7247" style="stop-color:#E8801D"/>
			<stop  offset="0.8776" style="stop-color:#E4741E"/>
			<stop  offset="0.9944" style="stop-color:#E36F1E"/>
		</linearGradient>
		<path class="st5" d="M27.7,17.3c-0.1,0-0.1-0.4-0.1-0.7l0.8-8.1c0-0.3,0.3-0.8,0.5-1L29,7.3c0.2-0.3,0.4-0.2,0.3,0L28,16.6
			C27.9,17,27.8,17.3,27.7,17.3"/>
		
			<linearGradient id="SVGID_6_" gradientUnits="userSpaceOnUse" x1="23.7088" y1="27.3565" x2="38.4772" y2="44.9568" gradientTransform="matrix(1 0 0 -1 0 47.3226)">
			<stop  offset="0.3427" style="stop-color:#FDB913"/>
			<stop  offset="0.3656" style="stop-color:#FBB415"/>
			<stop  offset="0.5519" style="stop-color:#EF941B"/>
			<stop  offset="0.7247" style="stop-color:#E8801D"/>
			<stop  offset="0.8776" style="stop-color:#E4741E"/>
			<stop  offset="0.9944" style="stop-color:#E36F1E"/>
		</linearGradient>
		<path class="st6" d="M30.2,8.7c0.2-0.2,0.5-0.1,0.4,0.2l-1.8,8.2c-0.1,0.3-0.2,0.7-0.3,0.7c-0.1,0-0.1-0.4,0-0.8l1.3-7.4
			C29.8,9.4,30,8.9,30.2,8.7"/>
		
			<linearGradient id="SVGID_7_" gradientUnits="userSpaceOnUse" x1="24.6794" y1="26.5366" x2="39.3432" y2="44.0123" gradientTransform="matrix(1 0 0 -1 0 47.3226)">
			<stop  offset="0.3427" style="stop-color:#FDB913"/>
			<stop  offset="0.3656" style="stop-color:#FBB415"/>
			<stop  offset="0.5519" style="stop-color:#EF941B"/>
			<stop  offset="0.7247" style="stop-color:#E8801D"/>
			<stop  offset="0.8776" style="stop-color:#E4741E"/>
			<stop  offset="0.9944" style="stop-color:#E36F1E"/>
		</linearGradient>
		<path class="st7" d="M30.3,17c-0.1,0.3-0.3,0.7-0.5,0.6c-0.1-0.1,0.1-0.7,0.1-0.7l4.4-10.8c0.1-0.3,0.5-0.7,0.8-0.6
			c0.3,0.1,0,0.8-0.1,1C32.4,12.6,31.6,14.2,30.3,17"/>
		
			<linearGradient id="SVGID_8_" gradientUnits="userSpaceOnUse" x1="25.2292" y1="26.0716" x2="39.8443" y2="43.4892" gradientTransform="matrix(1 0 0 -1 0 47.3226)">
			<stop  offset="0.3427" style="stop-color:#FDB913"/>
			<stop  offset="0.3656" style="stop-color:#FBB415"/>
			<stop  offset="0.5519" style="stop-color:#EF941B"/>
			<stop  offset="0.7247" style="stop-color:#E8801D"/>
			<stop  offset="0.8776" style="stop-color:#E4741E"/>
			<stop  offset="0.9944" style="stop-color:#E36F1E"/>
		</linearGradient>
		<path class="st8" d="M31.3,16.5c0.1,0.1,0.4-0.2,0.6-0.6L40,2.4c0.1-0.2,0.2-0.6-0.1-0.8c-0.2-0.1-0.6,0.1-0.8,0.4l-7.6,13.6
			C31.4,16.1,31.2,16.4,31.3,16.5"/>
		
			<linearGradient id="SVGID_9_" gradientUnits="userSpaceOnUse" x1="26.6743" y1="24.8492" x2="41.2453" y2="42.2141" gradientTransform="matrix(1 0 0 -1 0 47.3226)">
			<stop  offset="0.3427" style="stop-color:#FDB913"/>
			<stop  offset="0.3656" style="stop-color:#FBB415"/>
			<stop  offset="0.5519" style="stop-color:#EF941B"/>
			<stop  offset="0.7247" style="stop-color:#E8801D"/>
			<stop  offset="0.8776" style="stop-color:#E4741E"/>
			<stop  offset="0.9944" style="stop-color:#E36F1E"/>
		</linearGradient>
		<path class="st9" d="M31.5,17.9c-0.1-0.1,0.1-0.4,0.3-0.8l8.7-12.6c0.2-0.4,0.8-0.8,1.1-0.6c0.3,0.2,0.3,0.5,0,0.9l-9.5,12.6
			C31.9,17.7,31.6,18,31.5,17.9"/>
		
			<linearGradient id="SVGID_10_" gradientUnits="userSpaceOnUse" x1="28.5031" y1="23.3121" x2="43.029" y2="40.6233" gradientTransform="matrix(1 0 0 -1 0 47.3226)">
			<stop  offset="0.3427" style="stop-color:#FDB913"/>
			<stop  offset="0.3656" style="stop-color:#FBB415"/>
			<stop  offset="0.5519" style="stop-color:#EF941B"/>
			<stop  offset="0.7247" style="stop-color:#E8801D"/>
			<stop  offset="0.8776" style="stop-color:#E4741E"/>
			<stop  offset="0.9944" style="stop-color:#E36F1E"/>
		</linearGradient>
		<path class="st10" d="M34.1,16.5c0,0-0.6,0.6-0.7,0.5c-0.1-0.1,0.1-0.4,0.4-0.7l0.3-0.3L46.2,2c0.2-0.2,0.5-0.3,0.7-0.1l0.4,0.5
			c0.2,0.2,0.2,0.6,0,0.8L34.1,16.5z"/>
		
			<linearGradient id="SVGID_11_" gradientUnits="userSpaceOnUse" x1="29.983" y1="22.0638" x2="44.4607" y2="39.3176" gradientTransform="matrix(1 0 0 -1 0 47.3226)">
			<stop  offset="0.3427" style="stop-color:#FDB913"/>
			<stop  offset="0.3656" style="stop-color:#FBB415"/>
			<stop  offset="0.5519" style="stop-color:#EF941B"/>
			<stop  offset="0.7247" style="stop-color:#E8801D"/>
			<stop  offset="0.8776" style="stop-color:#E4741E"/>
			<stop  offset="0.9944" style="stop-color:#E36F1E"/>
		</linearGradient>
		<path class="st11" d="M33.1,18.7c-0.1-0.1,0.1-0.4,0.5-0.7L46.5,6.1c0.2-0.2,0.6-0.2,0.8,0c0.3,0.3,0.4,0.5,0.4,0.7
			c0.1,0.4-0.1,0.5-0.4,0.8L33.8,18.3C33.5,18.6,33.2,18.8,33.1,18.7"/>
		
			<linearGradient id="SVGID_12_" gradientUnits="userSpaceOnUse" x1="32.0596" y1="20.3157" x2="46.4885" y2="37.5115" gradientTransform="matrix(1 0 0 -1 0 47.3226)">
			<stop  offset="0.3427" style="stop-color:#FDB913"/>
			<stop  offset="0.3656" style="stop-color:#FBB415"/>
			<stop  offset="0.5519" style="stop-color:#EF941B"/>
			<stop  offset="0.7247" style="stop-color:#E8801D"/>
			<stop  offset="0.8776" style="stop-color:#E4741E"/>
			<stop  offset="0.9944" style="stop-color:#E36F1E"/>
		</linearGradient>
		<path class="st12" d="M35.8,17.6l15-10.7c0.3-0.2,0.5-0.2,0.6,0.1l0.3,1.2c0.1,0.3-0.1,0.7-0.4,0.9L36,18
			c-0.4,0.2-0.8,0.5-0.9,0.3C35.1,18.1,35.4,17.9,35.8,17.6"/>
		
			<linearGradient id="SVGID_13_" gradientUnits="userSpaceOnUse" x1="32.8389" y1="19.6784" x2="47.1938" y2="36.7859" gradientTransform="matrix(1 0 0 -1 0 47.3226)">
			<stop  offset="0.3427" style="stop-color:#FDB913"/>
			<stop  offset="0.3656" style="stop-color:#FBB415"/>
			<stop  offset="0.5519" style="stop-color:#EF941B"/>
			<stop  offset="0.7247" style="stop-color:#E8801D"/>
			<stop  offset="0.8776" style="stop-color:#E4741E"/>
			<stop  offset="0.9944" style="stop-color:#E36F1E"/>
		</linearGradient>
		<path class="st13" d="M34.2,19.9c0-0.2,0.4-0.3,0.8-0.6l13.4-6.8c0.4-0.2,0.7-0.1,0.6,0.2l0.1,1.5c0,0.3-0.3,0.7-0.8,0.9
			l-13.2,4.6C34.6,20,34.2,20.1,34.2,19.9"/>
		
			<linearGradient id="SVGID_14_" gradientUnits="userSpaceOnUse" x1="34.9131" y1="17.9446" x2="49.175" y2="34.9413" gradientTransform="matrix(1 0 0 -1 0 47.3226)">
			<stop  offset="0.3427" style="stop-color:#FDB913"/>
			<stop  offset="0.3656" style="stop-color:#FBB415"/>
			<stop  offset="0.5519" style="stop-color:#EF941B"/>
			<stop  offset="0.7247" style="stop-color:#E8801D"/>
			<stop  offset="0.8776" style="stop-color:#E4741E"/>
			<stop  offset="0.9944" style="stop-color:#E36F1E"/>
		</linearGradient>
		<path class="st14" d="M49.9,18.6l-13,1.9c-0.5,0.1-0.9,0.2-0.9,0c0-0.2,0.4-0.3,0.9-0.4l13.4-4.1c0.4-0.1,0.8,0,0.7,0.3l-0.2,1.5
			C50.8,18.2,50.4,18.5,49.9,18.6"/>
		
			<linearGradient id="SVGID_15_" gradientUnits="userSpaceOnUse" x1="35.0495" y1="17.8502" x2="49.1941" y2="34.7071" gradientTransform="matrix(1 0 0 -1 0 47.3226)">
			<stop  offset="0.3427" style="stop-color:#FDB913"/>
			<stop  offset="0.3656" style="stop-color:#FBB415"/>
			<stop  offset="0.5519" style="stop-color:#EF941B"/>
			<stop  offset="0.7247" style="stop-color:#E8801D"/>
			<stop  offset="0.8776" style="stop-color:#E4741E"/>
			<stop  offset="0.9944" style="stop-color:#E36F1E"/>
		</linearGradient>
		<path class="st15" d="M35.2,21.7c0-0.2,0.6-0.3,1.1-0.4L47.7,20c0.5-0.1,0.9,0.2,0.8,0.7l-0.2,0.6c-0.1,0.4-0.6,0.7-1.1,0.6l-11,0
			C35.7,21.9,35.2,21.9,35.2,21.7"/>
		
			<linearGradient id="SVGID_16_" gradientUnits="userSpaceOnUse" x1="23.4208" y1="27.5942" x2="38.1382" y2="45.1338" gradientTransform="matrix(1 0 0 -1 0 47.3226)">
			<stop  offset="0.3427" style="stop-color:#FDB913"/>
			<stop  offset="0.3656" style="stop-color:#FBB415"/>
			<stop  offset="0.5519" style="stop-color:#EF941B"/>
			<stop  offset="0.7247" style="stop-color:#E8801D"/>
			<stop  offset="0.8776" style="stop-color:#E4741E"/>
			<stop  offset="0.9944" style="stop-color:#E36F1E"/>
		</linearGradient>
		<path class="st16" d="M33.6,4.7c0,0-3.3,10.2-3.5,10.7c-0.2,0.6-0.4,1.1-0.6,1.1c-0.1,0,0-0.4,0.1-0.9l3.1-11.1
			c0.1-0.4,0.6-0.8,0.8-0.8C33.9,3.9,33.7,4.4,33.6,4.7"/>
	</g>
</g>
</svg>
