<?xml version="1.0" encoding="utf-8"?>
<!-- Generator: Adobe Illustrator 25.0.0, SVG Export Plug-In . SVG Version: 6.00 Build 0)  -->
<svg version="1.1" id="Layer_1" xmlns="http://www.w3.org/2000/svg" xmlns:xlink="http://www.w3.org/1999/xlink" x="0px" y="0px"
	 viewBox="0 0 839.8 400" style="enable-background:new 0 0 839.8 400;" xml:space="preserve">
<style type="text/css">
	.st0{fill-rule:evenodd;clip-rule:evenodd;fill:#1F0441;}
	.st1{fill:#1F0441;}
</style>
<g transform="matrix(.661096 0 0 .661096 114.73 96.4153)">
	<path class="st0" d="M609.4-107.7c0-13.3-10.7-24.5-25-24.5H338.9c-14.3,0-25,11.1-25,24.5v246.7c0,13.3,10.7,24.5,25,24.5h245.5
		c14.3,0,25-11.1,25-24.5V-107.7z M480.9-52.7h28.8V1h74.7v-108.7H338.9V1h74.7v-53.7h28.8V83.9h-28.8V30.2h-74.7v108.7h245.5V30.2
		h-74.7v53.7h-28.8L480.9-52.7L480.9-52.7z"/>
	<g>
		<path class="st1" d="M692.2,240.4c-6.4,0-12.7,0.4-16.6,1.2c-25.4,5.4-40.4,22-41.7,46c-0.4,9.7,0.5,16,3.9,22.7
			c6.4,13.1,16.6,20,44,29.6c29.8,10.5,35.3,14.7,35.3,27.5c0,6.6-1.2,9.9-5.7,14.1c-5.5,5.4-12.4,7.4-24.2,7.4
			c-12.6-0.1-21.1-2.3-34.6-8.8c-4.2-2-8.8-4.5-10.4-5.4l-3-1.8v31.4l4.6,2c10.4,4.7,22.5,7.8,33.9,9.1c6.4,0.7,19.2,0.3,25-0.8
			c5-0.8,13.9-3.8,17.6-5.5c11.6-6,20.2-15.6,24.2-27.6c2-6,3-16.1,2.2-22.6c-1.4-10.7-4.1-16.6-11-23.8
			c-7.7-8.1-16.5-12.7-40.2-20.8c-23.9-8.2-31-13.5-32.3-24.6c-0.9-7.7,3.5-15.6,10.8-19.2c13-6.6,34.6-4.1,53,6.2
			c2.3,1.4,4.5,2.4,4.6,2.4s0.4-6.8,0.4-15.1v-15l-3-1.4c-4.9-2.2-13.5-4.6-20-6C705,240.8,698.5,240.4,692.2,240.4L692.2,240.4z"/>
		<path class="st1" d="M19.6,243.5v27.5H73v141.2h29.5V270.8h53.4v-27.3H19.6z"/>
		<path class="st1" d="M554.8,243.5h29.5V412h-29.5V243.5z"/>
		<path class="st1" d="M767.2,243.5l0.4,27l53.2,0.4v141.2h29.5V270.8h53.4v-27.3H767.2z"/>
		<path class="st1" d="M494.6,373.1c4.2-12.4,4.3-14.7,4.3-75.3v-54.2h-29.5v54.2c0,61.7,0,61.5-4.9,71.7
			c-6.2,12.8-17.3,19.3-33.3,19.3c-16,0-27-6.5-33.3-19.3c-4.9-10.1-4.9-10-4.9-71.7v-54.2h-29.5v54.2c0,60.6,0.1,62.9,4.3,75.3
			c8.1,23.7,28.3,39.2,54.2,42.3c6.2,0.8,12,0.7,18.1,0C466.3,412.5,486.5,396.7,494.6,373.1z"/>
		<path class="st1" d="M249,270.3c14.7,0,18.3,0.5,23.8,3.2c16.6,7.7,20.4,30.6,7.3,44.2c-3.9,4.1-8.4,6.4-14.3,7.7
			c-6.2,1.4-42.7,1.5-43.3,0.1v-55l19.5-0.1C244.5,270.3,246.8,270.3,249,270.3L249,270.3z M193.7,243.3V412h28.8v-59.6h8.1
			c18.1,0,22.5,3.2,33.4,24.6c7.7,15.1,10.7,19.9,16,25c4.6,4.6,12.6,8.8,19.3,10.3c4.7,1.1,21.6,1.1,23.3,0.1v-26.6l-3.9,0.4
			c-7.7,0.8-14.9-2.2-19.7-8.1c-1.2-1.5-4.6-7-7.6-12.3c-5.5-10-7.4-13-10.8-16.5l-2-2.2l4.7-1.5c15.6-5,27.2-16.4,32.1-31.2
			c2.6-7.8,3-21.4,0.9-30c-4.1-16.9-15.1-29.3-31.9-36.1c-10.4-4.2-11.6-4.2-52.9-4.6L193.7,243.3z"/>
	</g>
</g>
</svg>
