<?xml version="1.0" encoding="utf-8"?>
<!-- Generator: Adobe Illustrator 25.0.0, SVG Export Plug-In . SVG Version: 6.00 Build 0)  -->
<svg version="1.1" id="Layer_1" xmlns="http://www.w3.org/2000/svg" xmlns:xlink="http://www.w3.org/1999/xlink" x="0px" y="0px"
	 viewBox="0 0 839.8 400" style="enable-background:new 0 0 839.8 400;" xml:space="preserve">
<style type="text/css">
	.st0{fill-rule:evenodd;clip-rule:evenodd;fill:#1F0441;}
	.st1{fill:#1F0441;}
</style>
<g transform="matrix(.661096 0 0 .661096 114.73 96.4153)">
	<path class="st0" d="M570.9-42.7c0-9.8-7.9-18.1-18.5-18.1H370.9c-10.6,0-18.5,8.2-18.5,18.1v182.4c0,9.8,7.9,18.1,18.5,18.1h181.5
		c10.6,0,18.5-8.2,18.5-18.1V-42.7z M475.9-2h21.3v39.7h55.2v-80.4H370.9v80.4h55.2V-2h21.3V99h-21.3V59.3h-55.2v80.4h181.5V59.3
		h-55.2V99h-21.3V-2z"/>
	<g>
		<path class="st1" d="M632.1,214.7c-4.7,0-9.4,0.3-12.3,0.9c-18.8,4-29.9,16.3-30.8,34c-0.3,7.2,0.4,11.8,2.9,16.8
			c4.7,9.7,12.3,14.8,32.5,21.9c22,7.8,26.1,10.9,26.1,20.3c0,4.9-0.9,7.3-4.2,10.4c-4.1,4-9.2,5.5-17.9,5.5
			c-9.3-0.1-15.6-1.7-25.6-6.5c-3.1-1.5-6.5-3.3-7.7-4l-2.2-1.3v23.2l3.4,1.5c7.7,3.5,16.6,5.8,25.1,6.7c4.7,0.5,14.2,0.2,18.5-0.6
			c3.7-0.6,10.3-2.8,13-4.1c8.6-4.4,14.9-11.5,17.9-20.4c1.5-4.4,2.2-11.9,1.6-16.7c-1-7.9-3-12.3-8.1-17.6
			c-5.7-6-12.2-9.4-29.7-15.4c-17.7-6.1-22.9-10-23.9-18.2c-0.7-5.7,2.6-11.5,8-14.2c9.6-4.9,25.6-3,39.2,4.6c1.7,1,3.3,1.8,3.4,1.8
			s0.3-5,0.3-11.2V221l-2.2-1c-3.6-1.6-10-3.4-14.8-4.4C641.6,215,636.8,214.7,632.1,214.7L632.1,214.7z"/>
		<path class="st1" d="M134.8,217v20.3h39.5v104.4h21.8V237.2h39.5V217H134.8z"/>
		<path class="st1" d="M530.5,217h21.8v124.6h-21.8V217z"/>
		<path class="st1" d="M687.6,217l0.3,20l39.3,0.3v104.4h21.8V237.2h39.5V217L687.6,217z"/>
		<path class="st1" d="M486,312.8c3.1-9.2,3.2-10.9,3.2-55.7l0-40.1h-21.8v40.1c0,45.6,0,45.5-3.6,53c-4.6,9.5-12.8,14.3-24.6,14.3
			c-11.8,0-20-4.8-24.6-14.3c-3.6-7.5-3.6-7.4-3.6-53V217h-21.8l0,40.1c0,44.8,0.1,46.5,3.2,55.7c6,17.5,20.9,29,40.1,31.3
			c4.6,0.6,8.9,0.5,13.4,0C465.1,342,480,330.3,486,312.8z"/>
		<path class="st1" d="M304.4,236.8c10.9,0,13.5,0.4,17.6,2.4c12.3,5.7,15.1,22.6,5.4,32.7c-2.9,3-6.2,4.7-10.6,5.7
			c-4.6,1-31.6,1.1-32,0.1V237l14.4-0.1C301.1,236.8,302.8,236.8,304.4,236.8L304.4,236.8z M263.5,216.9v124.7h21.3v-44.1h6
			c13.4,0,16.6,2.4,24.7,18.2c5.7,11.2,7.9,14.7,11.8,18.5c3.4,3.4,9.3,6.5,14.3,7.6c3.5,0.8,16,0.8,17.2,0.1v-19.7l-2.9,0.3
			c-5.7,0.6-11-1.6-14.6-6c-0.9-1.1-3.4-5.2-5.6-9.1c-4.1-7.4-5.5-9.6-8-12.2l-1.5-1.6l3.5-1.1c11.5-3.7,20.1-12.1,23.7-23.1
			c1.9-5.8,2.2-15.8,0.7-22.2c-3-12.5-11.2-21.7-23.6-26.7c-7.7-3.1-8.6-3.1-39.1-3.4L263.5,216.9z"/>
	</g>
</g>
</svg>
